%TF.GenerationSoftware,KiCad,Pcbnew,9.0.1*%
%TF.CreationDate,2025-04-27T19:27:19+01:00*%
%TF.ProjectId,PCB_IndicadorBateriaBaja,5043425f-496e-4646-9963-61646f724261,1*%
%TF.SameCoordinates,Original*%
%TF.FileFunction,Paste,Top*%
%TF.FilePolarity,Positive*%
%FSLAX46Y46*%
G04 Gerber Fmt 4.6, Leading zero omitted, Abs format (unit mm)*
G04 Created by KiCad (PCBNEW 9.0.1) date 2025-04-27 19:27:19*
%MOMM*%
%LPD*%
G01*
G04 APERTURE LIST*
G04 Aperture macros list*
%AMRoundRect*
0 Rectangle with rounded corners*
0 $1 Rounding radius*
0 $2 $3 $4 $5 $6 $7 $8 $9 X,Y pos of 4 corners*
0 Add a 4 corners polygon primitive as box body*
4,1,4,$2,$3,$4,$5,$6,$7,$8,$9,$2,$3,0*
0 Add four circle primitives for the rounded corners*
1,1,$1+$1,$2,$3*
1,1,$1+$1,$4,$5*
1,1,$1+$1,$6,$7*
1,1,$1+$1,$8,$9*
0 Add four rect primitives between the rounded corners*
20,1,$1+$1,$2,$3,$4,$5,0*
20,1,$1+$1,$4,$5,$6,$7,0*
20,1,$1+$1,$6,$7,$8,$9,0*
20,1,$1+$1,$8,$9,$2,$3,0*%
G04 Aperture macros list end*
%ADD10RoundRect,0.150000X-0.825000X-0.150000X0.825000X-0.150000X0.825000X0.150000X-0.825000X0.150000X0*%
%ADD11RoundRect,0.250000X-0.450000X0.350000X-0.450000X-0.350000X0.450000X-0.350000X0.450000X0.350000X0*%
%ADD12RoundRect,0.250000X0.450000X-0.350000X0.450000X0.350000X-0.450000X0.350000X-0.450000X-0.350000X0*%
%ADD13RoundRect,0.250000X0.350000X0.450000X-0.350000X0.450000X-0.350000X-0.450000X0.350000X-0.450000X0*%
%ADD14RoundRect,0.250000X-0.350000X-0.450000X0.350000X-0.450000X0.350000X0.450000X-0.350000X0.450000X0*%
%ADD15RoundRect,0.250000X-0.315000X0.382500X-0.315000X-0.382500X0.315000X-0.382500X0.315000X0.382500X0*%
%ADD16RoundRect,0.250000X-0.337500X-0.475000X0.337500X-0.475000X0.337500X0.475000X-0.337500X0.475000X0*%
%ADD17RoundRect,0.250000X-0.412500X-0.650000X0.412500X-0.650000X0.412500X0.650000X-0.412500X0.650000X0*%
%ADD18RoundRect,0.250000X0.475000X-0.337500X0.475000X0.337500X-0.475000X0.337500X-0.475000X-0.337500X0*%
%ADD19RoundRect,0.250000X0.337500X0.475000X-0.337500X0.475000X-0.337500X-0.475000X0.337500X-0.475000X0*%
%ADD20RoundRect,0.250000X-0.475000X0.337500X-0.475000X-0.337500X0.475000X-0.337500X0.475000X0.337500X0*%
G04 APERTURE END LIST*
D10*
%TO.C,U3*%
X64195000Y-58570000D03*
X64195000Y-59840000D03*
X64195000Y-61110000D03*
X64195000Y-62380000D03*
X64195000Y-63650000D03*
X64195000Y-64920000D03*
X64195000Y-66190000D03*
X69145000Y-66190000D03*
X69145000Y-64920000D03*
X69145000Y-63650000D03*
X69145000Y-62380000D03*
X69145000Y-61110000D03*
X69145000Y-59840000D03*
X69145000Y-58570000D03*
%TD*%
D11*
%TO.C,R8*%
X89195000Y-56190000D03*
X89195000Y-58190000D03*
%TD*%
D12*
%TO.C,R7*%
X89195000Y-62190000D03*
X89195000Y-60190000D03*
%TD*%
D13*
%TO.C,R6*%
X85195000Y-54190000D03*
X83195000Y-54190000D03*
%TD*%
D14*
%TO.C,R5*%
X65670000Y-69380000D03*
X67670000Y-69380000D03*
%TD*%
%TO.C,R4*%
X57670000Y-56380000D03*
X59670000Y-56380000D03*
%TD*%
D13*
%TO.C,R3*%
X59670000Y-63380000D03*
X57670000Y-63380000D03*
%TD*%
D14*
%TO.C,R2*%
X57670000Y-60380000D03*
X59670000Y-60380000D03*
%TD*%
D11*
%TO.C,R1*%
X66195000Y-43190000D03*
X66195000Y-45190000D03*
%TD*%
D15*
%TO.C,C7*%
X89195000Y-65387500D03*
X89195000Y-66992500D03*
%TD*%
D16*
%TO.C,C6*%
X76670000Y-54190000D03*
X78745000Y-54190000D03*
%TD*%
D17*
%TO.C,C5*%
X74632500Y-48190000D03*
X77757500Y-48190000D03*
%TD*%
D18*
%TO.C,C4*%
X70195000Y-45227500D03*
X70195000Y-43152500D03*
%TD*%
%TO.C,C3*%
X72670000Y-62417500D03*
X72670000Y-60342500D03*
%TD*%
D19*
%TO.C,C2*%
X59745000Y-67380000D03*
X57670000Y-67380000D03*
%TD*%
D20*
%TO.C,C1*%
X70195000Y-38152500D03*
X70195000Y-40227500D03*
%TD*%
M02*
