%TF.GenerationSoftware,KiCad,Pcbnew,9.0.1*%
%TF.CreationDate,2025-04-27T19:27:18+01:00*%
%TF.ProjectId,PCB_IndicadorBateriaBaja,5043425f-496e-4646-9963-61646f724261,1*%
%TF.SameCoordinates,Original*%
%TF.FileFunction,Copper,L2,Bot*%
%TF.FilePolarity,Positive*%
%FSLAX46Y46*%
G04 Gerber Fmt 4.6, Leading zero omitted, Abs format (unit mm)*
G04 Created by KiCad (PCBNEW 9.0.1) date 2025-04-27 19:27:18*
%MOMM*%
%LPD*%
G01*
G04 APERTURE LIST*
G04 Aperture macros list*
%AMRoundRect*
0 Rectangle with rounded corners*
0 $1 Rounding radius*
0 $2 $3 $4 $5 $6 $7 $8 $9 X,Y pos of 4 corners*
0 Add a 4 corners polygon primitive as box body*
4,1,4,$2,$3,$4,$5,$6,$7,$8,$9,$2,$3,0*
0 Add four circle primitives for the rounded corners*
1,1,$1+$1,$2,$3*
1,1,$1+$1,$4,$5*
1,1,$1+$1,$6,$7*
1,1,$1+$1,$8,$9*
0 Add four rect primitives between the rounded corners*
20,1,$1+$1,$2,$3,$4,$5,0*
20,1,$1+$1,$4,$5,$6,$7,0*
20,1,$1+$1,$6,$7,$8,$9,0*
20,1,$1+$1,$8,$9,$2,$3,0*%
G04 Aperture macros list end*
%TA.AperFunction,ComponentPad*%
%ADD10C,6.000000*%
%TD*%
%TA.AperFunction,ComponentPad*%
%ADD11RoundRect,0.250000X0.550000X0.550000X-0.550000X0.550000X-0.550000X-0.550000X0.550000X-0.550000X0*%
%TD*%
%TA.AperFunction,ComponentPad*%
%ADD12C,1.600000*%
%TD*%
%TA.AperFunction,ComponentPad*%
%ADD13R,2.000000X1.905000*%
%TD*%
%TA.AperFunction,ComponentPad*%
%ADD14O,2.000000X1.905000*%
%TD*%
%TA.AperFunction,ComponentPad*%
%ADD15R,1.050000X1.500000*%
%TD*%
%TA.AperFunction,ComponentPad*%
%ADD16O,1.050000X1.500000*%
%TD*%
%TA.AperFunction,ComponentPad*%
%ADD17RoundRect,0.250000X-0.550000X-0.550000X0.550000X-0.550000X0.550000X0.550000X-0.550000X0.550000X0*%
%TD*%
%TA.AperFunction,ComponentPad*%
%ADD18C,1.440000*%
%TD*%
%TA.AperFunction,ComponentPad*%
%ADD19R,1.575000X1.575000*%
%TD*%
%TA.AperFunction,ComponentPad*%
%ADD20C,1.575000*%
%TD*%
%TA.AperFunction,ComponentPad*%
%ADD21R,1.800000X1.800000*%
%TD*%
%TA.AperFunction,ComponentPad*%
%ADD22C,1.800000*%
%TD*%
%TA.AperFunction,Conductor*%
%ADD23C,0.300000*%
%TD*%
G04 APERTURE END LIST*
D10*
%TO.P,H2,1,1*%
%TO.N,GND*%
X75670000Y-74380000D03*
%TD*%
%TO.P,H1,1,1*%
%TO.N,GND*%
X62670000Y-35380000D03*
%TD*%
D11*
%TO.P,U4,1,GND*%
%TO.N,GND*%
X85000000Y-65000000D03*
D12*
%TO.P,U4,2,TR*%
%TO.N,Net-(U4-THR)*%
X85000000Y-62460000D03*
%TO.P,U4,3,Q*%
%TO.N,Net-(U4-Q)*%
X85000000Y-59920000D03*
%TO.P,U4,4,R*%
%TO.N,Net-(U4-R)*%
X85000000Y-57380000D03*
%TO.P,U4,5,CV*%
%TO.N,Net-(U4-CV)*%
X77380000Y-57380000D03*
%TO.P,U4,6,THR*%
%TO.N,Net-(U4-THR)*%
X77380000Y-59920000D03*
%TO.P,U4,7,DIS*%
%TO.N,unconnected-(U4-DIS-Pad7)*%
X77380000Y-62460000D03*
%TO.P,U4,8,VCC*%
%TO.N,Net-(U2-VO)*%
X77380000Y-65000000D03*
%TD*%
D13*
%TO.P,U2,1,VI*%
%TO.N,Net-(U2-VI)*%
X78725000Y-37840000D03*
D14*
%TO.P,U2,2,GND*%
%TO.N,GND*%
X78725000Y-40380000D03*
%TO.P,U2,3,VO*%
%TO.N,Net-(U2-VO)*%
X78725000Y-42920000D03*
%TD*%
D15*
%TO.P,U1,1,FB*%
%TO.N,GND*%
X69195000Y-50190000D03*
D16*
%TO.P,U1,2,K*%
%TO.N,Net-(U1-K)*%
X67925000Y-50190000D03*
%TO.P,U1,3,A*%
%TO.N,GND*%
X66655000Y-50190000D03*
%TD*%
D17*
%TO.P,SW1,1*%
%TO.N,+BATT*%
X53865000Y-43392500D03*
D12*
%TO.P,SW1,2*%
%TO.N,Net-(U2-VI)*%
X61485000Y-43392500D03*
%TD*%
D18*
%TO.P,RV1,1,1*%
%TO.N,unconnected-(RV1-Pad1)*%
X53580000Y-60840000D03*
%TO.P,RV1,2,2*%
%TO.N,Net-(R3-Pad2)*%
X53580000Y-63380000D03*
%TO.P,RV1,3,3*%
%TO.N,GND*%
X53580000Y-65920000D03*
%TD*%
D19*
%TO.P,J1,1,1*%
%TO.N,+BATT*%
X51195000Y-51130000D03*
D20*
%TO.P,J1,2,2*%
%TO.N,GND*%
X51195000Y-53630000D03*
%TD*%
D21*
%TO.P,D1,1,K*%
%TO.N,GND*%
X84195000Y-48190000D03*
D22*
%TO.P,D1,2,A*%
%TO.N,Net-(D1-A)*%
X86735000Y-48190000D03*
%TD*%
D23*
%TO.N,Net-(U2-VO)*%
X75670000Y-45975000D02*
X78725000Y-42920000D01*
X75670000Y-63290000D02*
X75670000Y-45975000D01*
X77380000Y-65000000D02*
X75670000Y-63290000D01*
%TO.N,Net-(U4-THR)*%
X82460000Y-59920000D02*
X85000000Y-62460000D01*
X77380000Y-59920000D02*
X82460000Y-59920000D01*
%TO.N,Net-(U2-VO)*%
X77380000Y-65000000D02*
X78215000Y-65000000D01*
%TD*%
%TA.AperFunction,Conductor*%
%TO.N,GND*%
G36*
X45472726Y-51885500D02*
G01*
X49787030Y-51885500D01*
X49854069Y-51905185D01*
X49899824Y-51957989D01*
X49910320Y-51996247D01*
X49913408Y-52024983D01*
X49963702Y-52159828D01*
X49963706Y-52159835D01*
X50049952Y-52275044D01*
X50049955Y-52275047D01*
X50165164Y-52361293D01*
X50165171Y-52361297D01*
X50210118Y-52378061D01*
X50215317Y-52380000D01*
X45234704Y-52380000D01*
X45265475Y-51989018D01*
X45290359Y-51923733D01*
X45346590Y-51882262D01*
X45406737Y-51876012D01*
X45472726Y-51885500D01*
G37*
%TD.AperFunction*%
%TA.AperFunction,Conductor*%
G36*
X55670000Y-52380000D02*
G01*
X52174683Y-52380000D01*
X52224828Y-52361297D01*
X52224827Y-52361297D01*
X52224831Y-52361296D01*
X52340046Y-52275046D01*
X52426296Y-52159831D01*
X52476591Y-52024983D01*
X52479681Y-51996245D01*
X52506419Y-51931694D01*
X52563811Y-51891845D01*
X52602970Y-51885500D01*
X54545990Y-51885500D01*
X54546000Y-51885500D01*
X54653456Y-51873947D01*
X54704967Y-51862741D01*
X54744602Y-51849549D01*
X54807497Y-51828616D01*
X54807501Y-51828613D01*
X54807504Y-51828613D01*
X54928543Y-51750825D01*
X54981347Y-51705070D01*
X55075567Y-51596336D01*
X55135338Y-51465459D01*
X55155023Y-51398420D01*
X55155024Y-51398416D01*
X55175500Y-51256000D01*
X55175500Y-44808867D01*
X55175500Y-44808861D01*
X55157841Y-44676424D01*
X55157841Y-44676422D01*
X55140816Y-44613713D01*
X55089069Y-44490517D01*
X55069955Y-44466539D01*
X55043558Y-44401851D01*
X55056326Y-44333158D01*
X55061368Y-44324164D01*
X55099814Y-44261834D01*
X55154999Y-44095297D01*
X55165500Y-43992509D01*
X55165499Y-42792492D01*
X55154999Y-42689703D01*
X55099814Y-42523166D01*
X55063049Y-42463561D01*
X55044610Y-42396170D01*
X55065532Y-42329507D01*
X55074875Y-42317264D01*
X55075567Y-42316467D01*
X55135338Y-42185590D01*
X55155023Y-42118551D01*
X55155024Y-42118547D01*
X55175500Y-41976131D01*
X55175500Y-34761394D01*
X55155530Y-34620715D01*
X55136322Y-34554422D01*
X55077987Y-34424851D01*
X55038403Y-34378505D01*
X55009833Y-34314745D01*
X55020270Y-34245659D01*
X55055923Y-34200598D01*
X55266133Y-34034882D01*
X55269998Y-34031958D01*
X55670000Y-33741339D01*
X55670000Y-52380000D01*
G37*
%TD.AperFunction*%
%TD*%
%TA.AperFunction,Conductor*%
%TO.N,+BATT*%
G36*
X54598316Y-34648970D02*
G01*
X54650792Y-34695101D01*
X54670000Y-34761394D01*
X54670000Y-41976131D01*
X54650315Y-42043170D01*
X54597511Y-42088925D01*
X54533399Y-42099489D01*
X54464990Y-42092500D01*
X54115000Y-42092500D01*
X54115000Y-43076814D01*
X54110606Y-43072420D01*
X54019394Y-43019759D01*
X53917661Y-42992500D01*
X53812339Y-42992500D01*
X53710606Y-43019759D01*
X53619394Y-43072420D01*
X53615000Y-43076814D01*
X53615000Y-42092500D01*
X53265028Y-42092500D01*
X53265012Y-42092501D01*
X53162302Y-42102994D01*
X52995880Y-42158141D01*
X52995875Y-42158143D01*
X52846654Y-42250184D01*
X52722684Y-42374154D01*
X52630643Y-42523375D01*
X52630641Y-42523380D01*
X52575494Y-42689802D01*
X52575493Y-42689809D01*
X52565000Y-42792513D01*
X52565000Y-43142500D01*
X53549314Y-43142500D01*
X53544920Y-43146894D01*
X53492259Y-43238106D01*
X53465000Y-43339839D01*
X53465000Y-43445161D01*
X53492259Y-43546894D01*
X53544920Y-43638106D01*
X53549314Y-43642500D01*
X52565001Y-43642500D01*
X52565001Y-43992486D01*
X52575494Y-44095197D01*
X52630641Y-44261619D01*
X52630643Y-44261624D01*
X52722684Y-44410845D01*
X52846654Y-44534815D01*
X52995875Y-44626856D01*
X52995880Y-44626858D01*
X53162302Y-44682005D01*
X53162309Y-44682006D01*
X53265019Y-44692499D01*
X53614999Y-44692499D01*
X53615000Y-44692498D01*
X53615000Y-43708186D01*
X53619394Y-43712580D01*
X53710606Y-43765241D01*
X53812339Y-43792500D01*
X53917661Y-43792500D01*
X54019394Y-43765241D01*
X54110606Y-43712580D01*
X54115000Y-43708186D01*
X54115000Y-44692499D01*
X54464972Y-44692499D01*
X54464984Y-44692498D01*
X54533397Y-44685509D01*
X54602090Y-44698278D01*
X54652975Y-44746158D01*
X54670000Y-44808867D01*
X54670000Y-51256000D01*
X54650315Y-51323039D01*
X54597511Y-51368794D01*
X54546000Y-51380000D01*
X51656880Y-51380000D01*
X51684222Y-51332642D01*
X51720000Y-51199118D01*
X51720000Y-51060882D01*
X51684222Y-50927358D01*
X51656880Y-50880000D01*
X52482500Y-50880000D01*
X52482500Y-50294672D01*
X52482499Y-50294655D01*
X52476098Y-50235127D01*
X52476096Y-50235120D01*
X52425854Y-50100413D01*
X52425850Y-50100406D01*
X52339690Y-49985312D01*
X52339687Y-49985309D01*
X52224593Y-49899149D01*
X52224586Y-49899145D01*
X52089879Y-49848903D01*
X52089872Y-49848901D01*
X52030344Y-49842500D01*
X51445000Y-49842500D01*
X51445000Y-50668120D01*
X51397642Y-50640778D01*
X51264118Y-50605000D01*
X51125882Y-50605000D01*
X50992358Y-50640778D01*
X50945000Y-50668120D01*
X50945000Y-49842500D01*
X50359655Y-49842500D01*
X50300127Y-49848901D01*
X50300120Y-49848903D01*
X50165413Y-49899145D01*
X50165406Y-49899149D01*
X50050312Y-49985309D01*
X50050309Y-49985312D01*
X49964149Y-50100406D01*
X49964145Y-50100413D01*
X49913903Y-50235120D01*
X49913901Y-50235127D01*
X49907500Y-50294655D01*
X49907500Y-50880000D01*
X50733120Y-50880000D01*
X50705778Y-50927358D01*
X50670000Y-51060882D01*
X50670000Y-51199118D01*
X50705778Y-51332642D01*
X50733120Y-51380000D01*
X45472726Y-51380000D01*
X45405687Y-51360315D01*
X45359932Y-51307511D01*
X45349585Y-51241426D01*
X45391652Y-50885995D01*
X45392314Y-50881220D01*
X45548313Y-49896277D01*
X45549159Y-49891541D01*
X45743709Y-48913474D01*
X45744739Y-48908778D01*
X45977550Y-47939052D01*
X45978757Y-47934425D01*
X46249444Y-46974644D01*
X46250854Y-46969996D01*
X46559012Y-46021581D01*
X46560578Y-46017063D01*
X46905761Y-45081404D01*
X46907498Y-45076967D01*
X47289134Y-44155614D01*
X47291049Y-44151236D01*
X47708556Y-43245595D01*
X47710678Y-43241222D01*
X47758741Y-43146894D01*
X48163404Y-42352697D01*
X48165664Y-42348467D01*
X48652944Y-41478365D01*
X48655400Y-41474178D01*
X49176416Y-40623958D01*
X49179041Y-40619857D01*
X49692974Y-39850702D01*
X49733067Y-39790697D01*
X49735821Y-39786746D01*
X50321966Y-38979986D01*
X50324897Y-38976115D01*
X50910729Y-38232992D01*
X50942286Y-38192962D01*
X50945305Y-38189283D01*
X51592984Y-37430947D01*
X51596186Y-37427345D01*
X52273109Y-36695054D01*
X52276435Y-36691596D01*
X52981596Y-35986435D01*
X52985054Y-35983109D01*
X53717356Y-35306175D01*
X53720985Y-35302952D01*
X53751353Y-35277016D01*
X54465469Y-34667103D01*
X54529230Y-34638533D01*
X54598316Y-34648970D01*
G37*
%TD.AperFunction*%
%TD*%
%TA.AperFunction,Conductor*%
%TO.N,GND*%
G36*
X71173470Y-28866291D02*
G01*
X72169892Y-28905440D01*
X72174684Y-28905722D01*
X73168855Y-28983965D01*
X73173664Y-28984439D01*
X74164004Y-29101652D01*
X74168786Y-29102315D01*
X75153713Y-29258312D01*
X75158467Y-29259161D01*
X76136515Y-29453707D01*
X76141232Y-29454741D01*
X77110935Y-29687547D01*
X77115586Y-29688761D01*
X77774826Y-29874686D01*
X78075344Y-29959441D01*
X78080003Y-29960854D01*
X79028403Y-30269007D01*
X79032952Y-30270584D01*
X79968578Y-30615755D01*
X79973049Y-30617505D01*
X80894366Y-30999127D01*
X80898782Y-31001058D01*
X81254958Y-31165258D01*
X81804396Y-31418553D01*
X81808777Y-31420678D01*
X82280333Y-31660947D01*
X82697280Y-31873393D01*
X82701553Y-31875676D01*
X83067512Y-32080623D01*
X83571620Y-32362937D01*
X83575821Y-32365400D01*
X84426041Y-32886416D01*
X84430142Y-32889041D01*
X85259280Y-33443053D01*
X85263274Y-33445837D01*
X86070001Y-34031958D01*
X86073884Y-34034897D01*
X86857007Y-34652262D01*
X86860740Y-34655326D01*
X87619015Y-35302952D01*
X87622654Y-35306186D01*
X88354919Y-35983085D01*
X88358429Y-35986460D01*
X89063539Y-36691570D01*
X89066914Y-36695080D01*
X89743813Y-37427345D01*
X89747040Y-37430976D01*
X90394669Y-38189253D01*
X90397737Y-38192992D01*
X91015102Y-38976115D01*
X91018041Y-38979998D01*
X91604162Y-39786725D01*
X91606946Y-39790719D01*
X92160958Y-40619857D01*
X92163583Y-40623958D01*
X92684599Y-41474178D01*
X92687062Y-41478379D01*
X93174317Y-42348436D01*
X93176612Y-42352730D01*
X93629321Y-43241222D01*
X93631446Y-43245603D01*
X94048931Y-44151195D01*
X94050882Y-44155656D01*
X94432481Y-45076918D01*
X94434256Y-45081452D01*
X94779406Y-46017022D01*
X94781001Y-46021623D01*
X95089145Y-46969996D01*
X95090558Y-46974655D01*
X95361230Y-47934383D01*
X95362460Y-47939095D01*
X95595253Y-48908748D01*
X95596296Y-48913504D01*
X95790834Y-49891512D01*
X95791690Y-49896305D01*
X95947681Y-50881192D01*
X95948349Y-50886015D01*
X96065558Y-51876316D01*
X96066035Y-51881162D01*
X96144275Y-52875281D01*
X96144561Y-52880142D01*
X96183709Y-53876529D01*
X96183805Y-53881397D01*
X96183805Y-54878602D01*
X96183709Y-54883470D01*
X96144561Y-55879857D01*
X96144275Y-55884718D01*
X96066035Y-56878837D01*
X96065558Y-56883683D01*
X95948349Y-57873984D01*
X95947681Y-57878807D01*
X95791690Y-58863694D01*
X95790834Y-58868487D01*
X95596296Y-59846495D01*
X95595253Y-59851251D01*
X95362460Y-60820904D01*
X95361230Y-60825616D01*
X95090558Y-61785344D01*
X95089145Y-61790003D01*
X94781001Y-62738376D01*
X94779406Y-62742977D01*
X94434256Y-63678547D01*
X94432481Y-63683081D01*
X94050882Y-64604343D01*
X94048931Y-64608804D01*
X93631446Y-65514396D01*
X93629321Y-65518777D01*
X93176612Y-66407269D01*
X93174317Y-66411563D01*
X92687062Y-67281620D01*
X92684599Y-67285821D01*
X92163583Y-68136041D01*
X92160958Y-68140142D01*
X91606946Y-68969280D01*
X91604162Y-68973274D01*
X91018041Y-69780001D01*
X91015102Y-69783884D01*
X90397737Y-70567007D01*
X90394648Y-70570771D01*
X89747047Y-71329015D01*
X89743813Y-71332654D01*
X89066914Y-72064919D01*
X89063539Y-72068429D01*
X88358429Y-72773539D01*
X88354919Y-72776914D01*
X87622654Y-73453813D01*
X87619015Y-73457047D01*
X86860771Y-74104648D01*
X86857007Y-74107737D01*
X86073884Y-74725102D01*
X86070001Y-74728041D01*
X85263274Y-75314162D01*
X85259280Y-75316946D01*
X84430142Y-75870958D01*
X84426041Y-75873583D01*
X83575821Y-76394599D01*
X83571620Y-76397062D01*
X82701563Y-76884317D01*
X82697269Y-76886612D01*
X81808777Y-77339321D01*
X81804396Y-77341446D01*
X80898804Y-77758931D01*
X80894343Y-77760882D01*
X79973081Y-78142481D01*
X79968547Y-78144256D01*
X79032977Y-78489406D01*
X79028376Y-78491001D01*
X78080003Y-78799145D01*
X78075344Y-78800558D01*
X77115616Y-79071230D01*
X77110904Y-79072460D01*
X76141251Y-79305253D01*
X76136495Y-79306296D01*
X75158487Y-79500834D01*
X75153694Y-79501690D01*
X74168807Y-79657681D01*
X74163984Y-79658349D01*
X73173683Y-79775558D01*
X73168837Y-79776035D01*
X72174718Y-79854275D01*
X72169857Y-79854561D01*
X71173470Y-79893709D01*
X71168602Y-79893805D01*
X70171398Y-79893805D01*
X70166530Y-79893709D01*
X69170142Y-79854561D01*
X69165281Y-79854275D01*
X68171162Y-79776035D01*
X68166316Y-79775558D01*
X67176015Y-79658349D01*
X67171192Y-79657681D01*
X66186305Y-79501690D01*
X66181512Y-79500834D01*
X65203504Y-79306296D01*
X65198748Y-79305253D01*
X64229095Y-79072460D01*
X64224383Y-79071230D01*
X63264655Y-78800558D01*
X63259996Y-78799145D01*
X62311623Y-78491001D01*
X62307022Y-78489406D01*
X61371452Y-78144256D01*
X61366918Y-78142481D01*
X60445656Y-77760882D01*
X60441195Y-77758931D01*
X59535603Y-77341446D01*
X59531222Y-77339321D01*
X59037747Y-77087883D01*
X58642730Y-76886612D01*
X58638436Y-76884317D01*
X57768379Y-76397062D01*
X57764178Y-76394599D01*
X56913958Y-75873583D01*
X56909857Y-75870958D01*
X56080719Y-75316946D01*
X56076725Y-75314162D01*
X55269998Y-74728041D01*
X55266115Y-74725102D01*
X54729909Y-74302391D01*
X54610250Y-74208059D01*
X72170000Y-74208059D01*
X72170000Y-74551940D01*
X72203705Y-74894165D01*
X72203708Y-74894182D01*
X72270791Y-75231437D01*
X72270792Y-75231443D01*
X72370623Y-75560540D01*
X72502219Y-75878241D01*
X72502226Y-75878255D01*
X72664322Y-76181518D01*
X72664333Y-76181536D01*
X72855377Y-76467453D01*
X72855387Y-76467467D01*
X73023785Y-76672659D01*
X73023786Y-76672660D01*
X74447340Y-75249105D01*
X74525864Y-75357184D01*
X74692816Y-75524136D01*
X74800893Y-75602658D01*
X73377338Y-77026212D01*
X73377339Y-77026213D01*
X73582533Y-77194612D01*
X73582546Y-77194622D01*
X73868463Y-77385666D01*
X73868481Y-77385677D01*
X74171744Y-77547773D01*
X74171758Y-77547780D01*
X74489459Y-77679376D01*
X74818556Y-77779207D01*
X74818562Y-77779208D01*
X75155817Y-77846291D01*
X75155834Y-77846294D01*
X75498059Y-77880000D01*
X75841941Y-77880000D01*
X76184165Y-77846294D01*
X76184182Y-77846291D01*
X76521437Y-77779208D01*
X76521443Y-77779207D01*
X76850540Y-77679376D01*
X77168241Y-77547780D01*
X77168255Y-77547773D01*
X77471518Y-77385677D01*
X77471536Y-77385666D01*
X77757453Y-77194622D01*
X77757466Y-77194612D01*
X77962659Y-77026213D01*
X77962659Y-77026212D01*
X76539106Y-75602659D01*
X76647184Y-75524136D01*
X76814136Y-75357184D01*
X76892659Y-75249106D01*
X78316212Y-76672659D01*
X78316213Y-76672659D01*
X78484612Y-76467466D01*
X78484622Y-76467453D01*
X78675666Y-76181536D01*
X78675677Y-76181518D01*
X78837773Y-75878255D01*
X78837780Y-75878241D01*
X78969376Y-75560540D01*
X79069207Y-75231443D01*
X79069208Y-75231437D01*
X79136291Y-74894182D01*
X79136294Y-74894165D01*
X79170000Y-74551940D01*
X79170000Y-74208059D01*
X79136294Y-73865834D01*
X79136291Y-73865817D01*
X79069208Y-73528562D01*
X79069207Y-73528556D01*
X78969376Y-73199459D01*
X78837780Y-72881758D01*
X78837773Y-72881744D01*
X78675677Y-72578481D01*
X78675666Y-72578463D01*
X78484622Y-72292546D01*
X78484612Y-72292533D01*
X78316213Y-72087339D01*
X78316212Y-72087338D01*
X76892658Y-73510892D01*
X76814136Y-73402816D01*
X76647184Y-73235864D01*
X76539105Y-73157340D01*
X77962660Y-71733786D01*
X77962659Y-71733785D01*
X77757467Y-71565387D01*
X77757453Y-71565377D01*
X77471536Y-71374333D01*
X77471518Y-71374322D01*
X77168255Y-71212226D01*
X77168241Y-71212219D01*
X76850540Y-71080623D01*
X76521443Y-70980792D01*
X76521437Y-70980791D01*
X76184182Y-70913708D01*
X76184165Y-70913705D01*
X75841941Y-70880000D01*
X75498059Y-70880000D01*
X75155834Y-70913705D01*
X75155817Y-70913708D01*
X74818562Y-70980791D01*
X74818556Y-70980792D01*
X74489459Y-71080623D01*
X74171758Y-71212219D01*
X74171744Y-71212226D01*
X73868481Y-71374322D01*
X73868463Y-71374333D01*
X73582546Y-71565377D01*
X73582532Y-71565387D01*
X73377338Y-71733786D01*
X74800893Y-73157341D01*
X74692816Y-73235864D01*
X74525864Y-73402816D01*
X74447341Y-73510893D01*
X73023786Y-72087338D01*
X72855387Y-72292532D01*
X72855377Y-72292546D01*
X72664333Y-72578463D01*
X72664322Y-72578481D01*
X72502226Y-72881744D01*
X72502219Y-72881758D01*
X72370623Y-73199459D01*
X72270792Y-73528556D01*
X72270791Y-73528562D01*
X72203708Y-73865817D01*
X72203705Y-73865834D01*
X72170000Y-74208059D01*
X54610250Y-74208059D01*
X54482992Y-74107737D01*
X54479253Y-74104669D01*
X53720976Y-73457040D01*
X53717345Y-73453813D01*
X52985080Y-72776914D01*
X52981570Y-72773539D01*
X52276460Y-72068429D01*
X52273085Y-72064919D01*
X52089920Y-71866772D01*
X51596186Y-71332654D01*
X51592952Y-71329015D01*
X50945326Y-70570740D01*
X50942262Y-70567007D01*
X50324897Y-69783884D01*
X50321958Y-69780001D01*
X49735837Y-68973274D01*
X49733053Y-68969280D01*
X49179041Y-68140142D01*
X49176416Y-68136041D01*
X48655400Y-67285821D01*
X48652937Y-67281620D01*
X48470318Y-66955530D01*
X48165682Y-66411563D01*
X48163387Y-66407269D01*
X48075283Y-66234356D01*
X47888279Y-65867339D01*
X47710678Y-65518777D01*
X47708553Y-65514396D01*
X47542589Y-65154394D01*
X47291058Y-64608782D01*
X47289127Y-64604366D01*
X46907505Y-63683049D01*
X46905755Y-63678578D01*
X46560584Y-62742952D01*
X46559007Y-62738403D01*
X46290295Y-61911392D01*
X46250854Y-61790003D01*
X46249441Y-61785344D01*
X46207068Y-61635102D01*
X45978761Y-60825586D01*
X45977547Y-60820935D01*
X45959063Y-60743945D01*
X52359500Y-60743945D01*
X52359500Y-60936054D01*
X52389553Y-61125802D01*
X52448916Y-61308506D01*
X52530506Y-61468634D01*
X52536135Y-61479681D01*
X52649055Y-61635102D01*
X52784898Y-61770945D01*
X52940319Y-61883865D01*
X53091274Y-61960781D01*
X53111493Y-61971083D01*
X53176081Y-61992069D01*
X53233756Y-62031506D01*
X53260955Y-62095865D01*
X53249041Y-62164711D01*
X53201797Y-62216187D01*
X53176081Y-62227931D01*
X53111493Y-62248916D01*
X52940318Y-62336135D01*
X52851645Y-62400560D01*
X52784898Y-62449055D01*
X52784896Y-62449057D01*
X52784895Y-62449057D01*
X52649057Y-62584895D01*
X52649057Y-62584896D01*
X52649055Y-62584898D01*
X52600560Y-62651645D01*
X52536135Y-62740318D01*
X52448916Y-62911493D01*
X52389553Y-63094197D01*
X52389553Y-63094199D01*
X52359500Y-63283945D01*
X52359500Y-63476055D01*
X52366521Y-63520382D01*
X52389553Y-63665802D01*
X52448916Y-63848506D01*
X52536135Y-64019681D01*
X52649055Y-64175102D01*
X52784898Y-64310945D01*
X52940319Y-64423865D01*
X53020152Y-64464542D01*
X53111495Y-64511084D01*
X53176890Y-64532332D01*
X53234566Y-64571769D01*
X53261765Y-64636127D01*
X53249851Y-64704974D01*
X53202607Y-64756450D01*
X53176893Y-64768194D01*
X53111677Y-64789384D01*
X52940578Y-64876564D01*
X52911352Y-64897798D01*
X52911351Y-64897798D01*
X53533554Y-65520000D01*
X53527339Y-65520000D01*
X53425606Y-65547259D01*
X53334394Y-65599920D01*
X53259920Y-65674394D01*
X53207259Y-65765606D01*
X53180000Y-65867339D01*
X53180000Y-65873553D01*
X52557798Y-65251351D01*
X52557798Y-65251352D01*
X52536564Y-65280578D01*
X52449383Y-65451678D01*
X52390040Y-65634315D01*
X52360000Y-65823984D01*
X52360000Y-66016015D01*
X52390040Y-66205684D01*
X52449383Y-66388321D01*
X52536561Y-66559415D01*
X52557798Y-66588646D01*
X53180000Y-65966445D01*
X53180000Y-65972661D01*
X53207259Y-66074394D01*
X53259920Y-66165606D01*
X53334394Y-66240080D01*
X53425606Y-66292741D01*
X53527339Y-66320000D01*
X53533554Y-66320000D01*
X52911351Y-66942200D01*
X52911352Y-66942201D01*
X52940577Y-66963434D01*
X53111678Y-67050616D01*
X53294315Y-67109959D01*
X53483985Y-67140000D01*
X53676015Y-67140000D01*
X53865684Y-67109959D01*
X54048321Y-67050616D01*
X54219419Y-66963436D01*
X54248646Y-66942201D01*
X54248646Y-66942200D01*
X53626447Y-66320000D01*
X53632661Y-66320000D01*
X53734394Y-66292741D01*
X53825606Y-66240080D01*
X53900080Y-66165606D01*
X53952741Y-66074394D01*
X53980000Y-65972661D01*
X53980000Y-65966446D01*
X54602200Y-66588646D01*
X54602201Y-66588646D01*
X54623436Y-66559419D01*
X54710616Y-66388321D01*
X54769959Y-66205684D01*
X54800000Y-66016015D01*
X54800000Y-65823984D01*
X54769959Y-65634315D01*
X54710616Y-65451678D01*
X54623434Y-65280577D01*
X54602201Y-65251352D01*
X54602200Y-65251351D01*
X53980000Y-65873552D01*
X53980000Y-65867339D01*
X53952741Y-65765606D01*
X53900080Y-65674394D01*
X53825606Y-65599920D01*
X53734394Y-65547259D01*
X53632661Y-65520000D01*
X53626447Y-65520000D01*
X54248646Y-64897798D01*
X54219415Y-64876561D01*
X54048321Y-64789383D01*
X53983107Y-64768194D01*
X53925432Y-64728756D01*
X53898234Y-64664397D01*
X53910149Y-64595551D01*
X53957394Y-64544075D01*
X53983109Y-64532332D01*
X54048504Y-64511084D01*
X54048506Y-64511082D01*
X54048509Y-64511082D01*
X54219681Y-64423865D01*
X54375102Y-64310945D01*
X54510945Y-64175102D01*
X54623865Y-64019681D01*
X54711082Y-63848509D01*
X54770447Y-63665801D01*
X54800500Y-63476055D01*
X54800500Y-63354071D01*
X75019499Y-63354071D01*
X75042299Y-63468687D01*
X75044499Y-63479744D01*
X75044499Y-63479745D01*
X75093533Y-63598125D01*
X75164726Y-63704673D01*
X75164727Y-63704674D01*
X76072862Y-64612808D01*
X76106347Y-64674131D01*
X76107654Y-64719886D01*
X76079500Y-64897647D01*
X76079500Y-65102351D01*
X76111522Y-65304534D01*
X76174781Y-65499223D01*
X76217093Y-65582263D01*
X76264036Y-65674394D01*
X76267715Y-65681613D01*
X76388028Y-65847213D01*
X76532786Y-65991971D01*
X76646234Y-66074394D01*
X76698390Y-66112287D01*
X76803034Y-66165606D01*
X76880776Y-66205218D01*
X76880778Y-66205218D01*
X76880781Y-66205220D01*
X76970459Y-66234358D01*
X77075465Y-66268477D01*
X77107520Y-66273554D01*
X77277648Y-66300500D01*
X77277649Y-66300500D01*
X77482351Y-66300500D01*
X77482352Y-66300500D01*
X77684534Y-66268477D01*
X77879219Y-66205220D01*
X78061610Y-66112287D01*
X78154590Y-66044732D01*
X78227213Y-65991971D01*
X78227215Y-65991968D01*
X78227219Y-65991966D01*
X78371966Y-65847219D01*
X78492287Y-65681610D01*
X78542907Y-65582261D01*
X78584499Y-65535457D01*
X78629669Y-65505276D01*
X78720276Y-65414669D01*
X78791465Y-65308127D01*
X78840501Y-65189744D01*
X78865500Y-65064069D01*
X78865500Y-64935931D01*
X78865500Y-64935928D01*
X78840502Y-64810261D01*
X78840501Y-64810260D01*
X78840501Y-64810256D01*
X78791465Y-64691873D01*
X78791464Y-64691872D01*
X78791461Y-64691866D01*
X78720276Y-64585331D01*
X78720273Y-64585327D01*
X78629672Y-64494726D01*
X78584499Y-64464542D01*
X78542906Y-64417735D01*
X78533876Y-64400013D01*
X78492287Y-64318390D01*
X78476966Y-64297302D01*
X78371971Y-64152786D01*
X78227213Y-64008028D01*
X78061614Y-63887715D01*
X78055006Y-63884348D01*
X77968917Y-63840483D01*
X77918123Y-63792511D01*
X77901328Y-63724690D01*
X77923865Y-63658555D01*
X77968917Y-63619516D01*
X78061610Y-63572287D01*
X78082770Y-63556913D01*
X78227213Y-63451971D01*
X78227215Y-63451968D01*
X78227219Y-63451966D01*
X78371966Y-63307219D01*
X78371968Y-63307215D01*
X78371971Y-63307213D01*
X78424732Y-63234590D01*
X78492287Y-63141610D01*
X78585220Y-62959219D01*
X78648477Y-62764534D01*
X78680500Y-62562352D01*
X78680500Y-62357648D01*
X78659955Y-62227931D01*
X78648477Y-62155465D01*
X78617621Y-62060500D01*
X78585220Y-61960781D01*
X78585218Y-61960778D01*
X78585218Y-61960776D01*
X78546029Y-61883864D01*
X78492287Y-61778390D01*
X78439500Y-61705734D01*
X78371971Y-61612786D01*
X78227213Y-61468028D01*
X78061614Y-61347715D01*
X78055006Y-61344348D01*
X77968917Y-61300483D01*
X77918123Y-61252511D01*
X77901328Y-61184690D01*
X77923865Y-61118555D01*
X77968917Y-61079516D01*
X78061610Y-61032287D01*
X78107361Y-60999047D01*
X78227213Y-60911971D01*
X78227215Y-60911968D01*
X78227219Y-60911966D01*
X78371966Y-60767219D01*
X78477753Y-60621613D01*
X78533082Y-60578949D01*
X78578071Y-60570500D01*
X82139192Y-60570500D01*
X82206231Y-60590185D01*
X82226873Y-60606819D01*
X83692862Y-62072808D01*
X83726347Y-62134131D01*
X83727654Y-62179886D01*
X83699500Y-62357647D01*
X83699500Y-62562351D01*
X83731522Y-62764534D01*
X83794781Y-62959223D01*
X83887715Y-63141613D01*
X84008028Y-63307213D01*
X84152782Y-63451967D01*
X84152787Y-63451971D01*
X84246948Y-63520383D01*
X84289614Y-63575713D01*
X84295593Y-63645326D01*
X84262988Y-63707121D01*
X84213068Y-63738407D01*
X84130878Y-63765642D01*
X84130875Y-63765643D01*
X83981654Y-63857684D01*
X83857684Y-63981654D01*
X83765643Y-64130875D01*
X83765641Y-64130880D01*
X83710494Y-64297302D01*
X83710493Y-64297309D01*
X83700000Y-64400013D01*
X83700000Y-64750000D01*
X84684314Y-64750000D01*
X84679920Y-64754394D01*
X84627259Y-64845606D01*
X84600000Y-64947339D01*
X84600000Y-65052661D01*
X84627259Y-65154394D01*
X84679920Y-65245606D01*
X84684314Y-65250000D01*
X83700001Y-65250000D01*
X83700001Y-65599986D01*
X83710494Y-65702697D01*
X83765641Y-65869119D01*
X83765643Y-65869124D01*
X83857684Y-66018345D01*
X83981654Y-66142315D01*
X84130875Y-66234356D01*
X84130880Y-66234358D01*
X84297302Y-66289505D01*
X84297309Y-66289506D01*
X84400019Y-66299999D01*
X84749999Y-66299999D01*
X84750000Y-66299998D01*
X84750000Y-65315686D01*
X84754394Y-65320080D01*
X84845606Y-65372741D01*
X84947339Y-65400000D01*
X85052661Y-65400000D01*
X85154394Y-65372741D01*
X85245606Y-65320080D01*
X85250000Y-65315686D01*
X85250000Y-66299999D01*
X85599972Y-66299999D01*
X85599986Y-66299998D01*
X85702697Y-66289505D01*
X85869119Y-66234358D01*
X85869124Y-66234356D01*
X86018345Y-66142315D01*
X86142315Y-66018345D01*
X86234356Y-65869124D01*
X86234358Y-65869119D01*
X86289505Y-65702697D01*
X86289506Y-65702690D01*
X86299999Y-65599986D01*
X86300000Y-65599973D01*
X86300000Y-65250000D01*
X85315686Y-65250000D01*
X85320080Y-65245606D01*
X85372741Y-65154394D01*
X85400000Y-65052661D01*
X85400000Y-64947339D01*
X85372741Y-64845606D01*
X85320080Y-64754394D01*
X85315686Y-64750000D01*
X86299999Y-64750000D01*
X86299999Y-64400028D01*
X86299998Y-64400013D01*
X86289505Y-64297302D01*
X86234358Y-64130880D01*
X86234356Y-64130875D01*
X86142315Y-63981654D01*
X86018345Y-63857684D01*
X85869124Y-63765643D01*
X85869119Y-63765641D01*
X85786931Y-63738407D01*
X85729486Y-63698634D01*
X85702663Y-63634119D01*
X85714978Y-63565343D01*
X85753049Y-63520383D01*
X85847219Y-63451966D01*
X85991966Y-63307219D01*
X85991968Y-63307215D01*
X85991971Y-63307213D01*
X86044732Y-63234590D01*
X86112287Y-63141610D01*
X86205220Y-62959219D01*
X86268477Y-62764534D01*
X86300500Y-62562352D01*
X86300500Y-62357648D01*
X86279955Y-62227931D01*
X86268477Y-62155465D01*
X86237621Y-62060500D01*
X86205220Y-61960781D01*
X86205218Y-61960778D01*
X86205218Y-61960776D01*
X86166029Y-61883864D01*
X86112287Y-61778390D01*
X86059500Y-61705734D01*
X85991971Y-61612786D01*
X85847213Y-61468028D01*
X85681614Y-61347715D01*
X85675006Y-61344348D01*
X85588917Y-61300483D01*
X85538123Y-61252511D01*
X85521328Y-61184690D01*
X85543865Y-61118555D01*
X85588917Y-61079516D01*
X85681610Y-61032287D01*
X85727361Y-60999047D01*
X85847213Y-60911971D01*
X85847215Y-60911968D01*
X85847219Y-60911966D01*
X85991966Y-60767219D01*
X85991968Y-60767215D01*
X85991971Y-60767213D01*
X86059500Y-60674265D01*
X86112287Y-60601610D01*
X86205220Y-60419219D01*
X86268477Y-60224534D01*
X86300500Y-60022352D01*
X86300500Y-59817648D01*
X86268477Y-59615466D01*
X86205220Y-59420781D01*
X86205218Y-59420778D01*
X86205218Y-59420776D01*
X86140876Y-59294499D01*
X86112287Y-59238390D01*
X86059500Y-59165734D01*
X85991971Y-59072786D01*
X85847213Y-58928028D01*
X85681614Y-58807715D01*
X85675006Y-58804348D01*
X85588917Y-58760483D01*
X85538123Y-58712511D01*
X85521328Y-58644690D01*
X85543865Y-58578555D01*
X85588917Y-58539516D01*
X85681610Y-58492287D01*
X85727361Y-58459047D01*
X85847213Y-58371971D01*
X85847215Y-58371968D01*
X85847219Y-58371966D01*
X85991966Y-58227219D01*
X85991968Y-58227215D01*
X85991971Y-58227213D01*
X86059500Y-58134265D01*
X86112287Y-58061610D01*
X86205220Y-57879219D01*
X86268477Y-57684534D01*
X86300500Y-57482352D01*
X86300500Y-57277648D01*
X86268477Y-57075466D01*
X86205220Y-56880781D01*
X86205218Y-56880778D01*
X86205218Y-56880776D01*
X86171503Y-56814607D01*
X86112287Y-56698390D01*
X86059500Y-56625734D01*
X85991971Y-56532786D01*
X85847213Y-56388028D01*
X85681613Y-56267715D01*
X85681612Y-56267714D01*
X85681610Y-56267713D01*
X85624653Y-56238691D01*
X85499223Y-56174781D01*
X85304534Y-56111522D01*
X85129995Y-56083878D01*
X85102352Y-56079500D01*
X84897648Y-56079500D01*
X84873329Y-56083351D01*
X84695465Y-56111522D01*
X84500776Y-56174781D01*
X84318386Y-56267715D01*
X84152786Y-56388028D01*
X84008028Y-56532786D01*
X83887715Y-56698386D01*
X83794781Y-56880776D01*
X83731522Y-57075465D01*
X83699500Y-57277648D01*
X83699500Y-57482351D01*
X83731522Y-57684534D01*
X83794781Y-57879223D01*
X83887715Y-58061613D01*
X84008028Y-58227213D01*
X84152786Y-58371971D01*
X84307749Y-58484556D01*
X84318390Y-58492287D01*
X84409840Y-58538883D01*
X84411080Y-58539515D01*
X84461876Y-58587490D01*
X84478671Y-58655311D01*
X84456134Y-58721446D01*
X84411080Y-58760485D01*
X84318386Y-58807715D01*
X84152786Y-58928028D01*
X84008028Y-59072786D01*
X83887715Y-59238386D01*
X83794781Y-59420776D01*
X83731522Y-59615465D01*
X83699500Y-59817648D01*
X83699500Y-59940191D01*
X83679815Y-60007230D01*
X83627011Y-60052985D01*
X83557853Y-60062929D01*
X83494297Y-60033904D01*
X83487819Y-60027872D01*
X82874673Y-59414726D01*
X82874669Y-59414723D01*
X82768127Y-59343535D01*
X82649744Y-59294499D01*
X82649738Y-59294497D01*
X82524071Y-59269500D01*
X82524069Y-59269500D01*
X78578071Y-59269500D01*
X78511032Y-59249815D01*
X78477754Y-59218386D01*
X78371966Y-59072781D01*
X78227219Y-58928034D01*
X78227213Y-58928028D01*
X78061614Y-58807715D01*
X78055006Y-58804348D01*
X77968917Y-58760483D01*
X77918123Y-58712511D01*
X77901328Y-58644690D01*
X77923865Y-58578555D01*
X77968917Y-58539516D01*
X78061610Y-58492287D01*
X78107361Y-58459047D01*
X78227213Y-58371971D01*
X78227215Y-58371968D01*
X78227219Y-58371966D01*
X78371966Y-58227219D01*
X78371968Y-58227215D01*
X78371971Y-58227213D01*
X78439500Y-58134265D01*
X78492287Y-58061610D01*
X78585220Y-57879219D01*
X78648477Y-57684534D01*
X78680500Y-57482352D01*
X78680500Y-57277648D01*
X78648477Y-57075466D01*
X78585220Y-56880781D01*
X78585218Y-56880778D01*
X78585218Y-56880776D01*
X78551503Y-56814607D01*
X78492287Y-56698390D01*
X78439500Y-56625734D01*
X78371971Y-56532786D01*
X78227213Y-56388028D01*
X78061613Y-56267715D01*
X78061612Y-56267714D01*
X78061610Y-56267713D01*
X78004653Y-56238691D01*
X77879223Y-56174781D01*
X77684534Y-56111522D01*
X77509995Y-56083878D01*
X77482352Y-56079500D01*
X77277648Y-56079500D01*
X77253329Y-56083351D01*
X77075465Y-56111522D01*
X76880776Y-56174781D01*
X76698386Y-56267715D01*
X76532786Y-56388028D01*
X76532782Y-56388032D01*
X76532181Y-56388634D01*
X76531896Y-56388789D01*
X76529085Y-56391191D01*
X76528580Y-56390600D01*
X76470858Y-56422119D01*
X76401166Y-56417135D01*
X76345233Y-56375263D01*
X76320816Y-56309799D01*
X76320500Y-56300953D01*
X76320500Y-47242155D01*
X82795000Y-47242155D01*
X82795000Y-47940000D01*
X83819722Y-47940000D01*
X83775667Y-48016306D01*
X83745000Y-48130756D01*
X83745000Y-48249244D01*
X83775667Y-48363694D01*
X83819722Y-48440000D01*
X82795000Y-48440000D01*
X82795000Y-49137844D01*
X82801401Y-49197372D01*
X82801403Y-49197379D01*
X82851645Y-49332086D01*
X82851649Y-49332093D01*
X82937809Y-49447187D01*
X82937812Y-49447190D01*
X83052906Y-49533350D01*
X83052913Y-49533354D01*
X83187620Y-49583596D01*
X83187627Y-49583598D01*
X83247155Y-49589999D01*
X83247172Y-49590000D01*
X83945000Y-49590000D01*
X83945000Y-48565277D01*
X84021306Y-48609333D01*
X84135756Y-48640000D01*
X84254244Y-48640000D01*
X84368694Y-48609333D01*
X84445000Y-48565277D01*
X84445000Y-49590000D01*
X85142828Y-49590000D01*
X85142844Y-49589999D01*
X85202372Y-49583598D01*
X85202379Y-49583596D01*
X85337086Y-49533354D01*
X85337093Y-49533350D01*
X85452187Y-49447190D01*
X85452190Y-49447187D01*
X85538350Y-49332093D01*
X85538354Y-49332086D01*
X85568213Y-49252031D01*
X85610084Y-49196097D01*
X85675548Y-49171680D01*
X85743821Y-49186531D01*
X85772076Y-49207683D01*
X85822636Y-49258243D01*
X85822641Y-49258247D01*
X85978192Y-49371260D01*
X86000978Y-49387815D01*
X86117501Y-49447187D01*
X86197393Y-49487895D01*
X86197396Y-49487896D01*
X86302221Y-49521955D01*
X86407049Y-49556015D01*
X86624778Y-49590500D01*
X86624779Y-49590500D01*
X86845221Y-49590500D01*
X86845222Y-49590500D01*
X87062951Y-49556015D01*
X87272606Y-49487895D01*
X87469022Y-49387815D01*
X87647365Y-49258242D01*
X87803242Y-49102365D01*
X87932815Y-48924022D01*
X88032895Y-48727606D01*
X88101015Y-48517951D01*
X88135500Y-48300222D01*
X88135500Y-48079778D01*
X88101015Y-47862049D01*
X88066955Y-47757221D01*
X88032896Y-47652396D01*
X88032895Y-47652393D01*
X87998237Y-47584375D01*
X87932815Y-47455978D01*
X87916260Y-47433192D01*
X87803247Y-47277641D01*
X87803243Y-47277636D01*
X87647363Y-47121756D01*
X87647358Y-47121752D01*
X87469025Y-46992187D01*
X87469024Y-46992186D01*
X87469022Y-46992185D01*
X87406096Y-46960122D01*
X87272606Y-46892104D01*
X87272603Y-46892103D01*
X87062952Y-46823985D01*
X86954086Y-46806742D01*
X86845222Y-46789500D01*
X86624778Y-46789500D01*
X86552201Y-46800995D01*
X86407047Y-46823985D01*
X86197396Y-46892103D01*
X86197393Y-46892104D01*
X86000974Y-46992187D01*
X85822641Y-47121752D01*
X85822636Y-47121756D01*
X85772075Y-47172317D01*
X85710752Y-47205801D01*
X85641060Y-47200816D01*
X85585127Y-47158945D01*
X85568213Y-47127968D01*
X85538354Y-47047913D01*
X85538350Y-47047906D01*
X85452190Y-46932812D01*
X85452187Y-46932809D01*
X85337093Y-46846649D01*
X85337086Y-46846645D01*
X85202379Y-46796403D01*
X85202372Y-46796401D01*
X85142844Y-46790000D01*
X84445000Y-46790000D01*
X84445000Y-47814722D01*
X84368694Y-47770667D01*
X84254244Y-47740000D01*
X84135756Y-47740000D01*
X84021306Y-47770667D01*
X83945000Y-47814722D01*
X83945000Y-46790000D01*
X83247155Y-46790000D01*
X83187627Y-46796401D01*
X83187620Y-46796403D01*
X83052913Y-46846645D01*
X83052906Y-46846649D01*
X82937812Y-46932809D01*
X82937809Y-46932812D01*
X82851649Y-47047906D01*
X82851645Y-47047913D01*
X82801403Y-47182620D01*
X82801401Y-47182627D01*
X82795000Y-47242155D01*
X76320500Y-47242155D01*
X76320500Y-46295807D01*
X76340185Y-46228768D01*
X76356814Y-46208131D01*
X78200855Y-44364089D01*
X78262176Y-44330606D01*
X78326855Y-44333842D01*
X78337255Y-44337222D01*
X78563146Y-44373000D01*
X78563147Y-44373000D01*
X78886853Y-44373000D01*
X78886854Y-44373000D01*
X79112745Y-44337222D01*
X79112748Y-44337221D01*
X79112749Y-44337221D01*
X79330255Y-44266549D01*
X79330255Y-44266548D01*
X79330258Y-44266548D01*
X79534038Y-44162717D01*
X79719066Y-44028286D01*
X79880786Y-43866566D01*
X80015217Y-43681538D01*
X80119048Y-43477758D01*
X80119049Y-43477755D01*
X80189721Y-43260249D01*
X80189721Y-43260248D01*
X80189722Y-43260245D01*
X80225500Y-43034354D01*
X80225500Y-42805646D01*
X80189722Y-42579755D01*
X80189721Y-42579751D01*
X80189721Y-42579750D01*
X80119049Y-42362244D01*
X80015216Y-42158461D01*
X80014653Y-42157686D01*
X79880786Y-41973434D01*
X79719066Y-41811714D01*
X79634134Y-41750007D01*
X79591470Y-41694678D01*
X79585491Y-41625064D01*
X79618097Y-41563269D01*
X79634137Y-41549371D01*
X79718739Y-41487905D01*
X79880402Y-41326242D01*
X80014788Y-41141276D01*
X80118582Y-40937570D01*
X80189234Y-40720128D01*
X80203509Y-40630000D01*
X79215748Y-40630000D01*
X79237518Y-40592292D01*
X79275000Y-40452409D01*
X79275000Y-40307591D01*
X79237518Y-40167708D01*
X79215748Y-40130000D01*
X80203509Y-40130000D01*
X80189234Y-40039871D01*
X80118582Y-39822429D01*
X80014788Y-39618723D01*
X79881988Y-39435940D01*
X79858508Y-39370133D01*
X79874333Y-39302079D01*
X79924439Y-39253384D01*
X79938966Y-39246875D01*
X79967331Y-39236296D01*
X80082546Y-39150046D01*
X80168796Y-39034831D01*
X80219091Y-38899983D01*
X80225500Y-38840373D01*
X80225499Y-36839628D01*
X80219091Y-36780017D01*
X80186102Y-36691570D01*
X80168797Y-36645171D01*
X80168793Y-36645164D01*
X80082547Y-36529955D01*
X80082544Y-36529952D01*
X79967335Y-36443706D01*
X79967328Y-36443702D01*
X79832482Y-36393408D01*
X79832483Y-36393408D01*
X79772883Y-36387001D01*
X79772881Y-36387000D01*
X79772873Y-36387000D01*
X79772864Y-36387000D01*
X77677129Y-36387000D01*
X77677123Y-36387001D01*
X77617516Y-36393408D01*
X77482671Y-36443702D01*
X77482664Y-36443706D01*
X77367455Y-36529952D01*
X77367452Y-36529955D01*
X77281206Y-36645164D01*
X77281202Y-36645171D01*
X77230908Y-36780017D01*
X77224501Y-36839616D01*
X77224501Y-36839623D01*
X77224500Y-36839635D01*
X77224500Y-38840370D01*
X77224501Y-38840376D01*
X77230908Y-38899983D01*
X77281202Y-39034828D01*
X77281206Y-39034835D01*
X77367452Y-39150044D01*
X77367455Y-39150047D01*
X77482664Y-39236293D01*
X77482667Y-39236295D01*
X77482668Y-39236295D01*
X77482669Y-39236296D01*
X77511025Y-39246872D01*
X77566958Y-39288742D01*
X77591376Y-39354206D01*
X77576525Y-39422479D01*
X77568010Y-39435939D01*
X77435213Y-39618719D01*
X77331417Y-39822429D01*
X77260765Y-40039871D01*
X77246491Y-40130000D01*
X78234252Y-40130000D01*
X78212482Y-40167708D01*
X78175000Y-40307591D01*
X78175000Y-40452409D01*
X78212482Y-40592292D01*
X78234252Y-40630000D01*
X77246491Y-40630000D01*
X77260765Y-40720128D01*
X77331417Y-40937570D01*
X77435211Y-41141276D01*
X77569597Y-41326242D01*
X77731257Y-41487902D01*
X77731263Y-41487907D01*
X77815863Y-41549372D01*
X77858529Y-41604701D01*
X77864508Y-41674315D01*
X77831903Y-41736110D01*
X77815864Y-41750007D01*
X77730940Y-41811709D01*
X77730931Y-41811716D01*
X77569216Y-41973431D01*
X77569216Y-41973432D01*
X77569214Y-41973434D01*
X77511480Y-42052896D01*
X77434783Y-42158461D01*
X77330950Y-42362244D01*
X77260278Y-42579750D01*
X77260278Y-42579753D01*
X77224500Y-42805646D01*
X77224500Y-43034353D01*
X77260278Y-43260248D01*
X77286954Y-43342350D01*
X77288949Y-43412191D01*
X77256704Y-43468348D01*
X75164726Y-45560326D01*
X75093534Y-45666874D01*
X75044499Y-45785255D01*
X75044497Y-45785261D01*
X75019500Y-45910928D01*
X75019500Y-45910931D01*
X75019500Y-63354069D01*
X75019500Y-63354071D01*
X75019499Y-63354071D01*
X54800500Y-63354071D01*
X54800500Y-63283945D01*
X54770447Y-63094199D01*
X54711082Y-62911491D01*
X54623865Y-62740319D01*
X54510945Y-62584898D01*
X54375102Y-62449055D01*
X54219681Y-62336135D01*
X54048504Y-62248915D01*
X53983919Y-62227931D01*
X53926243Y-62188494D01*
X53899044Y-62124136D01*
X53910958Y-62055289D01*
X53958202Y-62003813D01*
X53983919Y-61992069D01*
X54048504Y-61971084D01*
X54048506Y-61971082D01*
X54048509Y-61971082D01*
X54219681Y-61883865D01*
X54375102Y-61770945D01*
X54510945Y-61635102D01*
X54623865Y-61479681D01*
X54711082Y-61308509D01*
X54770447Y-61125801D01*
X54800500Y-60936055D01*
X54800500Y-60743945D01*
X54770447Y-60554199D01*
X54711082Y-60371491D01*
X54623865Y-60200319D01*
X54510945Y-60044898D01*
X54375102Y-59909055D01*
X54219681Y-59796135D01*
X54048506Y-59708916D01*
X53865802Y-59649553D01*
X53770928Y-59634526D01*
X53676055Y-59619500D01*
X53483945Y-59619500D01*
X53420696Y-59629517D01*
X53294197Y-59649553D01*
X53111493Y-59708916D01*
X52940318Y-59796135D01*
X52871004Y-59846495D01*
X52784898Y-59909055D01*
X52784896Y-59909057D01*
X52784895Y-59909057D01*
X52649057Y-60044895D01*
X52649057Y-60044896D01*
X52649055Y-60044898D01*
X52635955Y-60062929D01*
X52536135Y-60200318D01*
X52448916Y-60371493D01*
X52389553Y-60554197D01*
X52359500Y-60743945D01*
X45959063Y-60743945D01*
X45744741Y-59851232D01*
X45743703Y-59846495D01*
X45716337Y-59708918D01*
X45549161Y-58868467D01*
X45548309Y-58863694D01*
X45546108Y-58849799D01*
X45392315Y-57878786D01*
X45391650Y-57873984D01*
X45387879Y-57842124D01*
X45274439Y-56883664D01*
X45273964Y-56878837D01*
X45272199Y-56856410D01*
X45195722Y-55884684D01*
X45195440Y-55879892D01*
X45156291Y-54883470D01*
X45156195Y-54878602D01*
X45156195Y-53881397D01*
X45156291Y-53876529D01*
X45170341Y-53518932D01*
X45173939Y-53427358D01*
X45195440Y-52880104D01*
X45195721Y-52875318D01*
X45231693Y-52418266D01*
X45234705Y-52380000D01*
X50215317Y-52380000D01*
X50300017Y-52411591D01*
X50359627Y-52418000D01*
X50359637Y-52417999D01*
X50359638Y-52418000D01*
X50361666Y-52418109D01*
X50362111Y-52418266D01*
X50362929Y-52418354D01*
X50362908Y-52418547D01*
X50427555Y-52441356D01*
X50470416Y-52496536D01*
X50478642Y-52551660D01*
X50478027Y-52559473D01*
X51045178Y-53126624D01*
X50992358Y-53140778D01*
X50872643Y-53209896D01*
X50774896Y-53307643D01*
X50705778Y-53427358D01*
X50691624Y-53480178D01*
X50124473Y-52913027D01*
X50093830Y-52955204D01*
X50001826Y-53135771D01*
X50001825Y-53135774D01*
X49939203Y-53328508D01*
X49907500Y-53528672D01*
X49907500Y-53731327D01*
X49939203Y-53931491D01*
X50001825Y-54124225D01*
X50001827Y-54124228D01*
X50093831Y-54304797D01*
X50124473Y-54346971D01*
X50124474Y-54346972D01*
X50691624Y-53779821D01*
X50705778Y-53832642D01*
X50774896Y-53952357D01*
X50872643Y-54050104D01*
X50992358Y-54119222D01*
X51045178Y-54133375D01*
X50478026Y-54700525D01*
X50520202Y-54731168D01*
X50700771Y-54823172D01*
X50700774Y-54823174D01*
X50893508Y-54885796D01*
X51093673Y-54917500D01*
X51296327Y-54917500D01*
X51496491Y-54885796D01*
X51689225Y-54823174D01*
X51689228Y-54823172D01*
X51869797Y-54731168D01*
X51911971Y-54700526D01*
X51911971Y-54700525D01*
X51344821Y-54133375D01*
X51397642Y-54119222D01*
X51517357Y-54050104D01*
X51615104Y-53952357D01*
X51684222Y-53832642D01*
X51698375Y-53779821D01*
X52265525Y-54346971D01*
X52265526Y-54346971D01*
X52296168Y-54304797D01*
X52388172Y-54124228D01*
X52388174Y-54124225D01*
X52450796Y-53931491D01*
X52482500Y-53731327D01*
X52482500Y-53528672D01*
X52450796Y-53328508D01*
X52388174Y-53135774D01*
X52388172Y-53135771D01*
X52296168Y-52955202D01*
X52265525Y-52913027D01*
X52265525Y-52913026D01*
X51698375Y-53480177D01*
X51684222Y-53427358D01*
X51615104Y-53307643D01*
X51517357Y-53209896D01*
X51397642Y-53140778D01*
X51344822Y-53126624D01*
X51911972Y-52559474D01*
X51911357Y-52551659D01*
X51925721Y-52483282D01*
X51974773Y-52433525D01*
X52027083Y-52418472D01*
X52027071Y-52418354D01*
X52027748Y-52418281D01*
X52028354Y-52418107D01*
X52030372Y-52417999D01*
X52089983Y-52411591D01*
X52174683Y-52380000D01*
X55670000Y-52380000D01*
X55670000Y-49864041D01*
X65630000Y-49864041D01*
X65630000Y-49940000D01*
X66374670Y-49940000D01*
X66354925Y-49959745D01*
X66305556Y-50045255D01*
X66280000Y-50140630D01*
X66280000Y-50239370D01*
X66305556Y-50334745D01*
X66354925Y-50420255D01*
X66374670Y-50440000D01*
X65630000Y-50440000D01*
X65630000Y-50515958D01*
X65669387Y-50713974D01*
X65669390Y-50713983D01*
X65746652Y-50900513D01*
X65746659Y-50900526D01*
X65858829Y-51068399D01*
X65858832Y-51068403D01*
X66001596Y-51211167D01*
X66001600Y-51211170D01*
X66169473Y-51323340D01*
X66169486Y-51323347D01*
X66356016Y-51400609D01*
X66356025Y-51400612D01*
X66405000Y-51410353D01*
X66405000Y-50470330D01*
X66424745Y-50490075D01*
X66510255Y-50539444D01*
X66605630Y-50565000D01*
X66704370Y-50565000D01*
X66799745Y-50539444D01*
X66885255Y-50490075D01*
X66899500Y-50475830D01*
X66899500Y-50516002D01*
X66902617Y-50531671D01*
X66905000Y-50555865D01*
X66905000Y-51410352D01*
X66953974Y-51400612D01*
X66953983Y-51400609D01*
X67140515Y-51323346D01*
X67140518Y-51323344D01*
X67220658Y-51269796D01*
X67287335Y-51248917D01*
X67354716Y-51267401D01*
X67358422Y-51269783D01*
X67439244Y-51323786D01*
X67625873Y-51401091D01*
X67789288Y-51433596D01*
X67823992Y-51440499D01*
X67823996Y-51440500D01*
X67823997Y-51440500D01*
X68026004Y-51440500D01*
X68026005Y-51440499D01*
X68224127Y-51401091D01*
X68305338Y-51367451D01*
X68374804Y-51359983D01*
X68419859Y-51379594D01*
X68420128Y-51379103D01*
X68425613Y-51382098D01*
X68427099Y-51382745D01*
X68427911Y-51383353D01*
X68427913Y-51383354D01*
X68562620Y-51433596D01*
X68562627Y-51433598D01*
X68622155Y-51439999D01*
X68622172Y-51440000D01*
X68945000Y-51440000D01*
X68945000Y-50555865D01*
X68945067Y-50551789D01*
X68945400Y-50541638D01*
X68950500Y-50516003D01*
X68950500Y-50475830D01*
X68964745Y-50490075D01*
X69050255Y-50539444D01*
X69145630Y-50565000D01*
X69244370Y-50565000D01*
X69339745Y-50539444D01*
X69425255Y-50490075D01*
X69445000Y-50470330D01*
X69445000Y-51440000D01*
X69767828Y-51440000D01*
X69767844Y-51439999D01*
X69827372Y-51433598D01*
X69827379Y-51433596D01*
X69962086Y-51383354D01*
X69962093Y-51383350D01*
X70077187Y-51297190D01*
X70077190Y-51297187D01*
X70163350Y-51182093D01*
X70163354Y-51182086D01*
X70213596Y-51047379D01*
X70213598Y-51047372D01*
X70219999Y-50987844D01*
X70220000Y-50987827D01*
X70220000Y-50440000D01*
X69475330Y-50440000D01*
X69495075Y-50420255D01*
X69544444Y-50334745D01*
X69570000Y-50239370D01*
X69570000Y-50140630D01*
X69544444Y-50045255D01*
X69495075Y-49959745D01*
X69475330Y-49940000D01*
X70220000Y-49940000D01*
X70220000Y-49392172D01*
X70219999Y-49392155D01*
X70213598Y-49332627D01*
X70213596Y-49332620D01*
X70163354Y-49197913D01*
X70163350Y-49197906D01*
X70077190Y-49082812D01*
X70077187Y-49082809D01*
X69962093Y-48996649D01*
X69962086Y-48996645D01*
X69827379Y-48946403D01*
X69827372Y-48946401D01*
X69767844Y-48940000D01*
X69445000Y-48940000D01*
X69445000Y-49909670D01*
X69425255Y-49889925D01*
X69339745Y-49840556D01*
X69244370Y-49815000D01*
X69145630Y-49815000D01*
X69050255Y-49840556D01*
X68964745Y-49889925D01*
X68950500Y-49904170D01*
X68950500Y-49863997D01*
X68947939Y-49851123D01*
X68947383Y-49848326D01*
X68945000Y-49824134D01*
X68945000Y-48940000D01*
X68622155Y-48940000D01*
X68562627Y-48946401D01*
X68562620Y-48946403D01*
X68427913Y-48996645D01*
X68427911Y-48996646D01*
X68427092Y-48997260D01*
X68426134Y-48997616D01*
X68420132Y-49000895D01*
X68419660Y-49000031D01*
X68361625Y-49021671D01*
X68305338Y-49012547D01*
X68224131Y-48978910D01*
X68224119Y-48978907D01*
X68026007Y-48939500D01*
X68026003Y-48939500D01*
X67823997Y-48939500D01*
X67823992Y-48939500D01*
X67625880Y-48978907D01*
X67625872Y-48978909D01*
X67439243Y-49056214D01*
X67358439Y-49110204D01*
X67291761Y-49131081D01*
X67224382Y-49112595D01*
X67220659Y-49110203D01*
X67140526Y-49056659D01*
X67140513Y-49056652D01*
X66953984Y-48979390D01*
X66953977Y-48979388D01*
X66905000Y-48969645D01*
X66905000Y-49824134D01*
X66902617Y-49848326D01*
X66899500Y-49863995D01*
X66899500Y-49904170D01*
X66885255Y-49889925D01*
X66799745Y-49840556D01*
X66704370Y-49815000D01*
X66605630Y-49815000D01*
X66510255Y-49840556D01*
X66424745Y-49889925D01*
X66405000Y-49909670D01*
X66405000Y-48969646D01*
X66404999Y-48969645D01*
X66356022Y-48979388D01*
X66356015Y-48979390D01*
X66169486Y-49056652D01*
X66169473Y-49056659D01*
X66001600Y-49168829D01*
X66001596Y-49168832D01*
X65858832Y-49311596D01*
X65858829Y-49311600D01*
X65746659Y-49479473D01*
X65746652Y-49479486D01*
X65669390Y-49666016D01*
X65669387Y-49666025D01*
X65630000Y-49864041D01*
X55670000Y-49864041D01*
X55670000Y-43290148D01*
X60184500Y-43290148D01*
X60184500Y-43494851D01*
X60216522Y-43697034D01*
X60279781Y-43891723D01*
X60331135Y-43992509D01*
X60349364Y-44028286D01*
X60372715Y-44074113D01*
X60493028Y-44239713D01*
X60637786Y-44384471D01*
X60792749Y-44497056D01*
X60803390Y-44504787D01*
X60919607Y-44564003D01*
X60985776Y-44597718D01*
X60985778Y-44597718D01*
X60985781Y-44597720D01*
X61076862Y-44627314D01*
X61180465Y-44660977D01*
X61281557Y-44676988D01*
X61382648Y-44693000D01*
X61382649Y-44693000D01*
X61587351Y-44693000D01*
X61587352Y-44693000D01*
X61789534Y-44660977D01*
X61984219Y-44597720D01*
X62166610Y-44504787D01*
X62259590Y-44437232D01*
X62332213Y-44384471D01*
X62332215Y-44384468D01*
X62332219Y-44384466D01*
X62476966Y-44239719D01*
X62476968Y-44239715D01*
X62476971Y-44239713D01*
X62541282Y-44151195D01*
X62597287Y-44074110D01*
X62690220Y-43891719D01*
X62753477Y-43697034D01*
X62785500Y-43494852D01*
X62785500Y-43290148D01*
X62753477Y-43087966D01*
X62736057Y-43034354D01*
X62690218Y-42893276D01*
X62656503Y-42827107D01*
X62597287Y-42710890D01*
X62581894Y-42689703D01*
X62476971Y-42545286D01*
X62332213Y-42400528D01*
X62166613Y-42280215D01*
X62166612Y-42280214D01*
X62166610Y-42280213D01*
X62106898Y-42249788D01*
X61984223Y-42187281D01*
X61789534Y-42124022D01*
X61614995Y-42096378D01*
X61587352Y-42092000D01*
X61382648Y-42092000D01*
X61358329Y-42095851D01*
X61180465Y-42124022D01*
X60985776Y-42187281D01*
X60803386Y-42280215D01*
X60637786Y-42400528D01*
X60493028Y-42545286D01*
X60372715Y-42710886D01*
X60279781Y-42893276D01*
X60216522Y-43087965D01*
X60184500Y-43290148D01*
X55670000Y-43290148D01*
X55670000Y-35208059D01*
X59170000Y-35208059D01*
X59170000Y-35551940D01*
X59203705Y-35894165D01*
X59203708Y-35894182D01*
X59270791Y-36231437D01*
X59270792Y-36231443D01*
X59370623Y-36560540D01*
X59502219Y-36878241D01*
X59502226Y-36878255D01*
X59664322Y-37181518D01*
X59664333Y-37181536D01*
X59855377Y-37467453D01*
X59855387Y-37467467D01*
X60023785Y-37672659D01*
X60023786Y-37672660D01*
X61447340Y-36249105D01*
X61525864Y-36357184D01*
X61692816Y-36524136D01*
X61800893Y-36602658D01*
X60377338Y-38026212D01*
X60377339Y-38026213D01*
X60582533Y-38194612D01*
X60582546Y-38194622D01*
X60868463Y-38385666D01*
X60868481Y-38385677D01*
X61171744Y-38547773D01*
X61171758Y-38547780D01*
X61489459Y-38679376D01*
X61818556Y-38779207D01*
X61818562Y-38779208D01*
X62155817Y-38846291D01*
X62155834Y-38846294D01*
X62498059Y-38880000D01*
X62841941Y-38880000D01*
X63184165Y-38846294D01*
X63184182Y-38846291D01*
X63521437Y-38779208D01*
X63521443Y-38779207D01*
X63850540Y-38679376D01*
X64168241Y-38547780D01*
X64168255Y-38547773D01*
X64471518Y-38385677D01*
X64471536Y-38385666D01*
X64757453Y-38194622D01*
X64757466Y-38194612D01*
X64962659Y-38026213D01*
X64962659Y-38026212D01*
X63539106Y-36602659D01*
X63647184Y-36524136D01*
X63814136Y-36357184D01*
X63892659Y-36249106D01*
X65316212Y-37672659D01*
X65316213Y-37672659D01*
X65484612Y-37467466D01*
X65484622Y-37467453D01*
X65675666Y-37181536D01*
X65675677Y-37181518D01*
X65837773Y-36878255D01*
X65837783Y-36878234D01*
X65874806Y-36788854D01*
X65874806Y-36788853D01*
X65969376Y-36560540D01*
X66069207Y-36231443D01*
X66069208Y-36231437D01*
X66136291Y-35894182D01*
X66136294Y-35894165D01*
X66170000Y-35551940D01*
X66170000Y-35208059D01*
X66136294Y-34865834D01*
X66136291Y-34865817D01*
X66069208Y-34528562D01*
X66069207Y-34528556D01*
X65969376Y-34199459D01*
X65837780Y-33881758D01*
X65837773Y-33881744D01*
X65675677Y-33578481D01*
X65675666Y-33578463D01*
X65484622Y-33292546D01*
X65484612Y-33292533D01*
X65316213Y-33087339D01*
X65316212Y-33087338D01*
X63892658Y-34510892D01*
X63814136Y-34402816D01*
X63647184Y-34235864D01*
X63539105Y-34157340D01*
X64962660Y-32733786D01*
X64962659Y-32733785D01*
X64757467Y-32565387D01*
X64757453Y-32565377D01*
X64471536Y-32374333D01*
X64471518Y-32374322D01*
X64168255Y-32212226D01*
X64168241Y-32212219D01*
X63850540Y-32080623D01*
X63521443Y-31980792D01*
X63521437Y-31980791D01*
X63184182Y-31913708D01*
X63184165Y-31913705D01*
X62841941Y-31880000D01*
X62498059Y-31880000D01*
X62155834Y-31913705D01*
X62155817Y-31913708D01*
X61818562Y-31980791D01*
X61818556Y-31980792D01*
X61489459Y-32080623D01*
X61171758Y-32212219D01*
X61171744Y-32212226D01*
X60868481Y-32374322D01*
X60868463Y-32374333D01*
X60582546Y-32565377D01*
X60582532Y-32565387D01*
X60377338Y-32733786D01*
X61800893Y-34157341D01*
X61692816Y-34235864D01*
X61525864Y-34402816D01*
X61447341Y-34510893D01*
X60023786Y-33087338D01*
X59855387Y-33292532D01*
X59855377Y-33292546D01*
X59664333Y-33578463D01*
X59664322Y-33578481D01*
X59502226Y-33881744D01*
X59502219Y-33881758D01*
X59370623Y-34199459D01*
X59270792Y-34528556D01*
X59270791Y-34528562D01*
X59203708Y-34865817D01*
X59203705Y-34865834D01*
X59170000Y-35208059D01*
X55670000Y-35208059D01*
X55670000Y-33741340D01*
X56076746Y-33445821D01*
X56080697Y-33443067D01*
X56909870Y-32889032D01*
X56913944Y-32886424D01*
X57764191Y-32365391D01*
X57768365Y-32362944D01*
X58638467Y-31875664D01*
X58642697Y-31873404D01*
X59531229Y-31420674D01*
X59535603Y-31418553D01*
X60441236Y-31001049D01*
X60445614Y-30999134D01*
X61366967Y-30617498D01*
X61371404Y-30615761D01*
X62307063Y-30270578D01*
X62311581Y-30269012D01*
X63260007Y-29960850D01*
X63264644Y-29959444D01*
X64224425Y-29688757D01*
X64229052Y-29687550D01*
X65198778Y-29454739D01*
X65203474Y-29453709D01*
X66181541Y-29259159D01*
X66186277Y-29258313D01*
X67171220Y-29102314D01*
X67175988Y-29101653D01*
X68166339Y-28984438D01*
X68171139Y-28983966D01*
X69165318Y-28905721D01*
X69170104Y-28905440D01*
X70166530Y-28866291D01*
X70171398Y-28866195D01*
X71168602Y-28866195D01*
X71173470Y-28866291D01*
G37*
%TD.AperFunction*%
%TD*%
M02*
